<?xml version="1.0" encoding="UTF-8"?>
<svg id="Layer_1" xmlns="http://www.w3.org/2000/svg" version="1.1" viewBox="0 0 15.32 13.64">
  <!-- Generator: Adobe Illustrator 29.1.0, SVG Export Plug-In . SVG Version: 2.1.0 Build 142)  -->
  <defs>
    <style>
      .st0 {
        fill: #00b2c5;
      }
    </style>
  </defs>
  <path class="st0" d="M5.04.34c1.03.2,1.88.89,2.62,1.59.31-.28.62-.56.96-.81.5-.36,1.04-.67,1.65-.78h.57c.72.14,1.11.73,1.25,1.42.17.87,0,1.78-.19,2.62.76.22,1.55.51,2.18.99,1.1.84,1.18,1.95.08,2.83-.65.52-1.48.82-2.26,1.06.05.25.11.49.15.74.16.97.25,2.53-.73,3.11-.8.48-1.83,0-2.52-.46-.41-.28-.78-.61-1.15-.94-.59.55-1.26,1.12-2.02,1.42-1.15.45-2.11.06-2.39-1.18-.2-.88-.02-1.82.17-2.69-.64-.19-1.29-.42-1.85-.77-.47-.29-.93-.69-1.12-1.22l-.07-.32c0-.08,0-.17,0-.25.06-.7.71-1.25,1.27-1.59s1.17-.55,1.78-.72c-.2-.89-.38-1.87-.16-2.77.15-.58.57-1.19,1.21-1.27h.56ZM4.65.96c-.89.08-.88,1.42-.82,2.07.04.39.12.77.21,1.15,0,.01,0,.02.02.03.03.01.47-.09.55-.1.46-.08.92-.14,1.39-.19.38-.53.78-1.04,1.22-1.52,0-.02-.25-.25-.29-.29-.54-.48-1.52-1.21-2.27-1.14ZM10.44.96c-.61.05-1.33.55-1.79.93-.07.05-.55.47-.54.5.44.48.84.99,1.22,1.52.53.06,1.06.13,1.58.23.06.01.32.08.35.07,0,0,.02,0,.02-.02.16-.74.32-1.54.18-2.29-.11-.57-.38-1-1.03-.94ZM8.5,3.86l-.33-.43c-.17-.19-.33-.39-.5-.58-.02,0-.29.31-.33.36-.18.21-.35.42-.51.64h1.67ZM8.99,4.53c-.71-.06-1.42-.06-2.13-.04l-.53.04c-.4.6-.78,1.22-1.11,1.86-.03.06-.21.41-.21.44.38.79.82,1.56,1.32,2.28.68.06,1.36.06,2.05.04l.59-.04c.38-.54.73-1.11,1.03-1.7.04-.07.3-.58.3-.61-.38-.79-.83-1.55-1.31-2.28ZM5.51,4.61c-.43.05-.86.12-1.29.22-.01.02.12.41.14.47.09.26.19.52.31.77l.83-1.46ZM11.09,4.83c-.42-.1-.85-.17-1.29-.22l.83,1.46s.02-.02.03-.03c.09-.17.18-.45.25-.64.03-.07.2-.55.18-.57ZM3.61,4.98c-.65.19-1.34.43-1.9.83-1.48,1.05-.31,1.96.83,2.46.34.15.7.27,1.06.37.19-.63.44-1.24.71-1.84-.26-.6-.52-1.2-.7-1.83ZM11.71,8.65c.66-.2,1.35-.44,1.91-.84,1.45-1.04.3-1.95-.83-2.45-.35-.15-.71-.27-1.07-.37-.2.62-.44,1.23-.71,1.83.26.6.52,1.21.7,1.84ZM5.51,9.03l-.83-1.46s-.27.65-.3.73c-.02.06-.18.49-.16.5l1.29.22ZM11.09,8.81c-.06-.25-.15-.5-.25-.74-.05-.14-.11-.31-.18-.44,0-.02-.02-.05-.04-.05l-.83,1.46,1.29-.22ZM5.99,9.72c-.65-.07-1.31-.16-1.95-.31-.34,1.22-.66,4.04,1.51,3.06.62-.28,1.17-.75,1.66-1.22-.11-.15-.25-.28-.37-.43-.3-.35-.58-.72-.85-1.1ZM11.28,9.41c-.64.15-1.3.24-1.95.31-.37.54-.79,1.04-1.22,1.52.1.12.23.23.35.34.53.46,1.54,1.21,2.27,1.08.83-.14.82-1.42.76-2.05-.04-.4-.12-.8-.22-1.2ZM8.5,9.78h-1.67c.25.35.53.67.81.99l.03.02.83-1.01Z"/>
  <path class="st0" d="M7.52,5.52c1.11-.1,1.85,1.13,1.19,2.04-.52.73-1.6.73-2.12,0-.57-.8-.06-1.96.92-2.04Z"/>
</svg>