<?xml version="1.0" encoding="UTF-8"?>
<svg id="Layer_1" xmlns="http://www.w3.org/2000/svg" version="1.1" viewBox="0 0 15.32 13.64">
  <!-- Generator: Adobe Illustrator 29.1.0, SVG Export Plug-In . SVG Version: 2.1.0 Build 142)  -->
  <defs>
    <style>
      .st0 {
        fill: #00b2c5;
      }
    </style>
  </defs>
  <g>
    <path class="st0" d="M7.93,3.98c.8.03,1.33.3,1.89.85.33.33.63.71,1.12.82.6.13,1.1-.12,1.49-.57.04-.05.08-.1.12-.14-.15.61-.46,1.2-1,1.54-.74.47-1.93.45-2.69.03-.43-.24-.71-.59-1.06-.92-.38-.36-.79-.55-1.33-.44-.42.09-.75.39-1.01.72.14-.58.43-1.15.94-1.5.38-.26.85-.37,1.31-.39.07,0,.15,0,.23,0Z"/>
    <path class="st0" d="M10.18,7.77c-.15.61-.45,1.19-.99,1.53-.74.47-1.93.46-2.69.05-.5-.28-.79-.7-1.22-1.05-.61-.51-1.36-.44-1.92.09-.1.1-.19.21-.28.31.15-.61.45-1.19.99-1.53.74-.47,1.93-.47,2.69-.05.45.25.73.62,1.11.96s.79.52,1.31.4c.42-.09.74-.39.99-.71Z"/>
  </g>
  <path class="st0" d="M7.82,13.31c-3.58,0-6.49-2.91-6.49-6.49S4.24.34,7.82.34s6.49,2.91,6.49,6.49-2.91,6.49-6.49,6.49ZM7.82,1.11c-3.15,0-5.71,2.56-5.71,5.71s2.56,5.71,5.71,5.71,5.71-2.56,5.71-5.71S10.96,1.11,7.82,1.11Z"/>
</svg>